# xmcd CD database file
#
# Track frame offsets:
#	150
#	15460
#	48235
#
# Disc length: 1083 seconds
#
# Revision: 0
# Processed by: cddbd v1.5.1PL2 Copyright (c) Steve Scherf et al.
# Submitted via: CDex 1.51
#
DISCID=17043903
DTITLE=Veronicas, The - Everything I'm Not
DYEAR=2005
DGENRE=Pop
TTITLE0=Everything I'm Not
TTITLE1=4Ever (Claude Le Gache Extended Vox)
TTITLE2=4Ever (Mac Quayle Break Mix)
EXTD=YEAR: 2005
EXTT0=
EXTT1=
EXTT2=
PLAYORDER=
